<svg xmlns="http://www.w3.org/2000/svg" version="1.0" width="110.000000pt" height="100.000000pt" viewBox="0 0 110.000000 100.000000" preserveAspectRatio="xMidYMid meet">
<metadata>
Created by potrace 1.10, written by Peter Selinger 2001-2011
</metadata>
<g transform="translate(0.000000,99.000000) scale(0.100000,-0.100000)" fill="#ffffff" stroke="none">
<g fill="#3C50E0" > 
<path d="M197 784 c-4 -4 -7 -16 -7 -26 0 -14 6 -19 23 -16 14 2 22 10 22 23 0 20 -25 32 -38 19z" />
<path d="M134 876 c-64 -28 -64 -29 -64 -359 l0 -299 34 -34 34 -34 180 0 c144 0 181 3 185 14 12 30 -16 36 -178 36 -129 0 -165 3 -183 16 -22 15 -22 20 -22 220 l0 204 370 0 370 0 0 -59 c0 -41 5 -62 15 -71 31 -25 37 3 36 157 -3 233 16 223 -423 223 -250 -1 -330 -4 -354 -14z m708 -63 c13 -12 18 -30 18 -70 l0 -53 -370 0 -370 0 0 52 c0 92 -17 88 368 88 298 0 337 -2 354 -17z"/>
<path d="M287 783 c-15 -14 -7 -43 12 -43 26 0 36 17 21 35 -14 16 -23 19 -33 8z"/>
<path d="M366 775 c-8 -22 1 -35 25 -35 15 0 20 6 17 22 -4 27 -33 36 -42 13z"/>
<path d="M578 472 c-78 -46 -98 -62 -98 -80 0 -15 10 -29 30 -40 27 -15 30 -22 30 -68 0 -57 15 -77 87 -113 58 -29 98 -26 163 13 l55 32 3 62 c2 49 7 62 21 67 27 8 52 40 46 57 -8 19 -196 128 -221 128 -10 -1 -63 -27 -116 -58z m138 -2 c6 -6 38 -25 72 -43 l63 -34 -77 -44 -77 -45 -73 40 c-40 23 -73 43 -74 46 0 5 140 89 151 89 3 1 10 -4 15 -9z m-71 -195 c50 -31 61 -31 107 0 45 31 48 31 48 1 0 -18 -11 -31 -44 -50 -55 -32 -62 -32 -120 0 -35 19 -46 32 -46 50 0 30 5 30 55 -1z"/>
</g>

</g>
</svg>
