<svg xmlns="http://www.w3.org/2000/svg" version="1.0" width="300.000000pt" height="99.000000pt" viewBox="0 0 300.000000 99.000000" preserveAspectRatio="xMidYMid meet">
<metadata>
Created by potrace 1.10, written by Peter Selinger 2001-2011
</metadata>
<g transform="translate(0.000000,99.000000) scale(0.100000,-0.100000)" fill="#ffffff" stroke="none">
<g fill="#3C50E0"> 
<path d="M197 784 c-4 -4 -7 -16 -7 -26 0 -14 6 -19 23 -16 14 2 22 10 22 23 0 20 -25 32 -38 19z" />
<path d="M134 876 c-64 -28 -64 -29 -64 -359 l0 -299 34 -34 34 -34 180 0 c144 0 181 3 185 14 12 30 -16 36 -178 36 -129 0 -165 3 -183 16 -22 15 -22 20 -22 220 l0 204 370 0 370 0 0 -59 c0 -41 5 -62 15 -71 31 -25 37 3 36 157 -3 233 16 223 -423 223 -250 -1 -330 -4 -354 -14z m708 -63 c13 -12 18 -30 18 -70 l0 -53 -370 0 -370 0 0 52 c0 92 -17 88 368 88 298 0 337 -2 354 -17z"/>
<path d="M287 783 c-15 -14 -7 -43 12 -43 26 0 36 17 21 35 -14 16 -23 19 -33 8z"/>
<path d="M366 775 c-8 -22 1 -35 25 -35 15 0 20 6 17 22 -4 27 -33 36 -42 13z"/>
<path d="M578 472 c-78 -46 -98 -62 -98 -80 0 -15 10 -29 30 -40 27 -15 30 -22 30 -68 0 -57 15 -77 87 -113 58 -29 98 -26 163 13 l55 32 3 62 c2 49 7 62 21 67 27 8 52 40 46 57 -8 19 -196 128 -221 128 -10 -1 -63 -27 -116 -58z m138 -2 c6 -6 38 -25 72 -43 l63 -34 -77 -44 -77 -45 -73 40 c-40 23 -73 43 -74 46 0 5 140 89 151 89 3 1 10 -4 15 -9z m-71 -195 c50 -31 61 -31 107 0 45 31 48 31 48 1 0 -18 -11 -31 -44 -50 -55 -32 -62 -32 -120 0 -35 19 -46 32 -46 50 0 30 5 30 55 -1z"/>
</g>
<path d="M1807 820 c-49 -39 -64 -165 -26 -214 40 -51 119 -27 139 42 23 84 8 161 -37 181 -34 15 -47 14 -76 -9z m63 -79 c0 -69 -11 -101 -33 -101 -18 0 -19 5 -14 60 8 90 47 124 47 41z"/>
<path d="M1228 823 c-13 -3 -18 -21 -22 -81 -4 -42 -8 -96 -10 -119 -4 -43 -4 -43 31 -43 34 0 34 1 31 37 -4 52 19 55 40 4 18 -44 27 -48 56 -26 19 14 19 16 1 48 -17 32 -17 36 -2 58 21 30 22 93 1 113 -15 15 -84 20 -126 9z m85 -49 c9 -10 -11 -42 -33 -54 -18 -10 -20 -7 -20 19 0 27 6 33 41 40 3 0 9 -2 12 -5z"/>
<path d="M1405 818 c-2 -7 -5 -64 -8 -125 l-3 -113 83 0 83 0 0 36 0 37 -50 -7 c-45 -6 -50 -5 -50 13 0 16 8 20 43 23 37 3 42 6 42 28 0 23 -3 25 -43 22 -37 -2 -43 0 -40 15 2 14 15 19 56 21 50 3 52 4 52 33 l0 29 -80 0 c-56 0 -82 -4 -85 -12z"/>
<path d="M1626 808 c-14 -13 -28 -36 -32 -51 -6 -24 0 -34 40 -70 25 -24 46 -46 46 -50 0 -12 -45 -8 -59 6 -10 10 -15 8 -27 -7 -19 -27 -18 -31 11 -44 44 -20 102 -15 119 10 32 46 18 89 -43 129 -17 10 -22 21 -18 32 9 23 27 21 27 -3 0 -15 7 -20 25 -20 22 0 25 4 25 33 0 18 -5 38 -12 45 -20 20 -74 14 -102 -10z"/>
<path d="M1956 808 c-10 -38 -7 -188 4 -209 8 -15 21 -19 59 -19 63 0 92 29 97 97 2 26 5 72 7 101 l4 52 -33 0 -34 0 0 -79 c0 -93 -5 -111 -33 -111 -19 0 -20 4 -14 95 l5 95 -28 0 c-20 0 -29 -6 -34 -22z"/>
<path d="M2169 823 c-13 -3 -18 -24 -23 -106 -4 -56 -9 -110 -12 -119 -4 -15 1 -18 31 -18 36 0 37 1 33 37 -5 54 18 54 43 -1 20 -45 20 -46 44 -30 29 19 30 26 9 59 -15 23 -15 28 5 67 22 46 20 84 -7 106 -15 11 -88 15 -123 5z m84 -49 c9 -10 -11 -42 -33 -54 -18 -10 -20 -7 -20 19 0 27 6 33 41 40 3 0 9 -2 12 -5z"/>
<path d="M2383 808 c-34 -38 -46 -69 -47 -125 0 -42 4 -57 24 -78 33 -36 82 -34 121 4 33 34 35 43 13 62 -13 11 -19 8 -39 -17 -19 -24 -26 -27 -37 -16 -15 15 -15 91 2 121 17 33 41 27 34 -9 -6 -28 -5 -30 25 -30 24 0 32 5 37 24 3 14 0 37 -8 53 -11 24 -20 28 -58 31 -37 2 -50 -1 -67 -20z"/>
<path d="M2546 822 c-3 -5 -8 -61 -12 -125 l-7 -117 87 0 86 0 0 36 0 36 -56 -7 c-51 -6 -55 -5 -52 12 2 13 14 19 46 21 39 3 42 5 42 33 0 30 -1 31 -40 24 -36 -6 -40 -5 -40 14 0 19 6 21 55 21 54 0 55 0 55 30 l0 30 -79 0 c-44 0 -82 -4 -85 -8z"/>
<path d="M2800 460 c-11 -11 -22 -15 -25 -10 -4 6 -47 10 -96 10 -84 0 -90 -1 -98 -22 -6 -16 -3 -30 6 -45 18 -27 9 -83 -10 -64 -17 17 -52 13 -72 -9 -24 -26 -13 -64 31 -108 28 -28 39 -33 62 -28 15 4 37 18 48 33 l22 26 11 -22 c10 -18 20 -21 85 -21 l73 0 14 63 c14 58 16 62 41 59 20 -2 31 4 43 22 22 32 14 64 -24 105 -34 37 -80 42 -111 11z m85 -35 c0 -37 -33 -49 -42 -15 -3 11 -10 19 -16 17 -14 -4 -45 -93 -46 -129 -1 -27 -3 -28 -51 -28 l-50 0 -1 48 c-1 26 -5 61 -8 77 l-8 30 -12 -45 c-18 -62 -47 -116 -66 -124 -45 -17 -82 6 -70 44 9 27 43 26 54 -2 8 -22 8 -22 25 5 10 14 24 47 31 72 13 43 13 45 -6 45 -12 0 -19 5 -17 12 3 8 27 11 74 9 38 -1 70 -4 72 -6 2 -2 6 -22 9 -44 5 -39 23 -49 23 -13 0 9 9 32 20 50 17 28 25 33 53 30 28 -3 32 -7 32 -33z"/>
<path d="M1139 429 c-16 -17 -29 -35 -29 -39 0 -4 -7 -24 -15 -44 -15 -36 -15 -36 -35 -16 -25 25 -33 25 -66 -3 -34 -30 -28 -65 21 -114 38 -38 62 -41 98 -13 16 13 28 16 32 10 4 -6 51 -10 111 -10 l104 0 0 26 c0 14 -4 34 -10 44 -7 12 -5 32 6 65 15 43 15 49 -1 86 l-18 39 -85 0 c-81 0 -85 -1 -113 -31z m151 -54 c-24 -70 -25 -89 -5 -81 9 3 15 0 15 -9 0 -12 -17 -15 -85 -15 -47 0 -85 2 -85 5 0 3 11 10 24 14 13 5 26 19 29 30 8 30 -38 29 -54 -1 -23 -45 -52 -68 -85 -68 -36 0 -59 26 -48 54 9 24 54 21 54 -4 0 -46 42 -11 74 62 14 31 31 60 38 65 15 9 142 21 146 13 1 -3 -7 -32 -18 -65z"/>
<path d="M1165 398 c-15 -22 -14 -23 6 -26 22 -4 39 12 39 36 0 20 -28 14 -45 -10z"/>
<path d="M1434 445 c-4 -8 -3 -27 0 -41 9 -36 -11 -91 -34 -97 -25 -6 -27 -48 -4 -82 16 -24 20 -25 128 -25 122 0 174 10 200 39 18 19 19 19 55 -20 45 -47 64 -49 100 -10 24 26 28 27 38 13 9 -14 14 -15 32 -5 27 17 31 16 31 -2 0 -12 18 -15 104 -15 97 0 105 2 111 20 4 12 0 31 -7 43 -20 31 -3 90 24 82 31 -10 38 31 14 76 l-21 39 -87 0 c-62 0 -88 -4 -88 -12 0 -9 -3 -9 -12 0 -7 7 -44 12 -95 12 -95 0 -113 -13 -86 -63 19 -37 10 -85 -12 -67 -9 7 -28 10 -45 6 -23 -4 -30 -2 -30 9 0 25 -49 91 -76 104 -14 6 -72 11 -130 11 -84 0 -106 -3 -110 -15z m556 -29 l0 -30 28 26 c22 21 40 27 95 31 51 4 67 2 67 -8 0 -8 -10 -15 -22 -17 -16 -2 -26 -16 -39 -53 -24 -68 -24 -78 2 -70 15 5 20 3 17 -6 -3 -10 -28 -15 -86 -17 -69 -2 -81 0 -76 12 3 8 12 12 19 10 8 -4 20 15 34 57 11 34 20 64 18 65 -2 2 -30 -31 -63 -74 l-59 -77 -5 80 c-5 81 -12 88 -25 25 -10 -49 -41 -106 -60 -114 -45 -17 -82 6 -70 44 9 27 43 26 54 -2 8 -22 8 -22 25 5 10 14 24 47 31 72 13 43 13 45 -5 45 -18 0 -26 11 -16 21 2 2 34 4 70 4 l66 0 0 -29z m-318 7 c24 -22 23 -74 -2 -106 -27 -34 -76 -47 -182 -47 -81 0 -114 11 -69 23 24 6 68 127 45 127 -8 0 -14 5 -14 10 0 6 41 10 102 10 80 0 105 -3 120 -17z m58 -112 c0 -25 -16 -43 -47 -56 -50 -21 -60 -18 -27 7 16 12 35 30 42 40 14 19 32 24 32 9z"/>
<path d="M1565 417 c-2 -6 -11 -36 -20 -65 -9 -29 -15 -55 -12 -58 19 -19 67 53 67 100 0 25 -28 44 -35 23z"/>
<path d="M2275 440 c-3 -10 -2 -28 4 -38 14 -27 -7 -92 -30 -92 -26 0 -32 -43 -11 -79 l17 -31 105 2 c93 3 105 5 108 22 2 10 -1 29 -8 41 -16 30 0 81 23 77 9 -1 21 7 27 18 9 16 7 28 -11 60 l-23 40 -97 0 c-88 0 -98 -2 -104 -20z m182 -5 c-2 -5 -13 -11 -25 -13 -15 -2 -26 -18 -40 -62 -21 -60 -20 -72 4 -63 8 3 14 -1 14 -11 0 -13 -14 -16 -86 -16 -54 0 -83 4 -79 10 3 6 12 10 20 10 7 0 21 23 31 53 9 28 19 58 22 65 2 6 -3 12 -12 12 -8 0 -13 6 -11 13 7 15 167 18 162 2z"/>
</g>
</svg>
